<svg xmlns="http://www.w3.org/2000/svg" viewBox="0 0 512 512"><path d="M345.7792,207.354c13.9224,11.312,27.8448,21.7538,35.241,38.2866a86.1463,86.1463,0,0,1,7.3963,26.9746,76.1376,76.1376,0,0,1-9.1366,46.9881,77.0075,77.0075,0,0,1-19.1433,23.494q-43.5444,36.4426-87.0889,72.8853a8.5481,8.5481,0,0,1-14.0336-6.2787,195.8713,195.8713,0,0,0-11.1267-59.21,192.7535,192.7535,0,0,0-31.7605-56.9948c-10.0078-12.2076-20.099-21.1876-33.9358-33.5007-11.7766-10.48-22.1011-18.6705-29.5851-24.3642-6.091-5.2209-13.0522-10.0067-18.7082-15.6627a83.1024,83.1024,0,0,1-11.747-15.2276,76.5737,76.5737,0,0,1-10.4418-47.8582,74.3982,74.3982,0,0,1,18.2731-41.3321,67.4371,67.4371,0,0,1,38.2866-22.1888A65.6962,65.6962,0,0,1,206.99,97.28a87.8848,87.8848,0,0,1,24.3642,16.0977Z" style="fill:#ff4a4a"/><path d="M147.3851,351.7988a139.2217,139.2217,0,0,1-11.747-10.8769,83.0991,83.0991,0,0,1-23.0589-46.988,104.38,104.38,0,0,1-.1631-26.7187,90.1068,90.1068,0,0,1,3.11-14.92,50.2506,50.2506,0,0,1,5.201-12.6345l1.2523-2.0679a8.5023,8.5023,0,0,1,12.6287-2.2012c4.4752,3.629,9.8183,7.9687,15.8224,12.8593C170.3521,264.4778,173.3,267.0164,175.23,268.7c11.4528,9.99,19.9807,17.4294,29.15,28.28a176.4472,176.4472,0,0,1,24.3642,37.4164,193.1738,193.1738,0,0,1,15.6627,48.7284,291.0679,291.0679,0,0,1,2.7451,33.4789,8.5111,8.5111,0,0,1-13.953,6.77ZM265.5463,126.96a8.5038,8.5038,0,0,1,.0406-13.1927l12.3206-9.9614A69.1777,69.1777,0,0,1,301.4016,90.754a72.2223,72.2223,0,0,1,71.7873,13.9224c14.2143,12.2616,22.7367,29.3923,26.1141,47.8582a79.8565,79.8565,0,0,1,.0815,29.891,76.2228,76.2228,0,0,1-6.6173,19.7618,73.4453,73.4453,0,0,1-7.2588,11.6076,8.5083,8.5083,0,0,1-12.1577,1.4278Z" style="fill:#05090f"/></svg>